<?xml version="1.0" encoding="utf-8"?>
<!-- Generator: Adobe Illustrator 23.1.0, SVG Export Plug-In . SVG Version: 6.00 Build 0)  -->
<svg version="1.1" id="Livello_1" xmlns="http://www.w3.org/2000/svg" xmlns:xlink="http://www.w3.org/1999/xlink" x="0px" y="0px"
	 viewBox="0 0 145.51 155.91" style="enable-background:new 0 0 145.51 155.91;" xml:space="preserve">
<style type="text/css">
	.st0{fill:#1E1E1C;}
	.st1{fill:#DE4913;}
	.st2{fill:#3C1A43;}
</style>
<g>
	<g>
		<polygon class="st0" points="87.39,55.01 87.39,55.01 87.39,55.01 		"/>
	</g>
	<g>
		<path class="st1" d="M86.5,145.9c0.82-3.09,0.03-6.52-2.39-8.95c-5.43-5.43-5.43-14.24,0-19.67l32.78-32.78
			c3.62-3.62,3.62-9.49,0-13.11c-3.62-3.62-9.49-3.62-13.11,0L71,104.17c-5.43,5.43-14.24,5.43-19.67,0
			c-5.43-5.43-5.43-14.24,0-19.67l32.78-32.78c3.62-3.62,3.62-9.49,0-13.11C80.49,35,74.62,35,71,38.62L28.39,81.23l-6.56,6.56
			c-3.62,3.62-3.62,9.49,0,13.11L71,150.06c3.62,3.62,9.49,3.62,13.11,0C85.31,148.87,86.1,147.42,86.5,145.9z"/>
	</g>
	<path class="st2" d="M133.28,55.01c-6.42-6.42-14.86-9.58-23.28-9.5c0.09-8.42-3.07-16.86-9.5-23.28
		c-3.99-3.99-8.76-6.72-13.82-8.2c0.51-2.88-0.34-5.96-2.57-8.19c-3.62-3.62-9.49-3.62-13.11,0L54.61,22.23l0,0L18.56,58.29
		L5.45,71.4c-3.62,3.62-3.62,9.49,0,13.11c3.62,3.62,9.49,3.62,13.11,0L31.67,71.4l2.21-2.21l33.84-33.84
		c5.43-5.43,14.24-5.43,19.67,0c5.43,5.43,5.43,14.24,0,19.67L61.17,81.23l-6.56,6.56c-3.62,3.62-3.62,9.49,0,13.11
		c3.62,3.62,9.49,3.62,13.11,0l6.56-6.56l26.22-26.22c5.43-5.43,14.24-5.43,19.67,0c5.43,5.43,5.43,14.24,0,19.67l-8.69,8.69
		l-25.16,25.15l0,0c-2.6,3.62-2.19,8.79,1.07,12.04c3.26,3.26,8.42,3.67,12.04,1.07l0,0l33.84-33.84l0,0
		C145.95,88.23,145.95,67.68,133.28,55.01z"/>
</g>
</svg>
